<?xml version="1.0" encoding="UTF-8" standalone="no"?>
<svg
   xmlns:dc="http://purl.org/dc/elements/1.1/"
   xmlns:cc="http://creativecommons.org/ns#"
   xmlns:rdf="http://www.w3.org/1999/02/22-rdf-syntax-ns#"
   xmlns:svg="http://www.w3.org/2000/svg"
   xmlns="http://www.w3.org/2000/svg"
   xmlns:sodipodi="http://sodipodi.sourceforge.net/DTD/sodipodi-0.dtd"
   xmlns:inkscape="http://www.inkscape.org/namespaces/inkscape"
   version="1.0"
   width="2111.4868pt"
   height="406.0643pt"
   viewBox="0 0 2111.4868 406.0643"
   preserveAspectRatio="xMidYMid meet"
   id="svg66"
   sodipodi:docname="logo_nextmedical.svg"
   inkscape:version="0.92.1 r15371">
  <defs
     id="defs70" />
  <sodipodi:namedview
     pagecolor="#ffffff"
     bordercolor="#666666"
     borderopacity="1"
     objecttolerance="10"
     gridtolerance="10"
     guidetolerance="10"
     inkscape:pageopacity="0"
     inkscape:pageshadow="2"
     inkscape:window-width="1366"
     inkscape:window-height="705"
     id="namedview68"
     showgrid="false"
     fit-margin-top="0"
     fit-margin-left="0"
     fit-margin-right="0"
     fit-margin-bottom="0"
     inkscape:zoom="0.2801121"
     inkscape:cx="2032.1234"
     inkscape:cy="184.60181"
     inkscape:window-x="-8"
     inkscape:window-y="-8"
     inkscape:window-maximized="1"
     inkscape:current-layer="svg66" />
  <metadata
     id="metadata2">
Created by potrace 1.16, written by Peter Selinger 2001-2019
<rdf:RDF>
  <cc:Work
     rdf:about="">
    <dc:format>image/svg+xml</dc:format>
    <dc:type
       rdf:resource="http://purl.org/dc/dcmitype/StillImage" />
    <dc:title></dc:title>
  </cc:Work>
</rdf:RDF>
</metadata>
  <g
     id="g4756"
     transform="translate(-26.144775,-76.997255)">
    <path
       d="m 2032,227.6 c -11,2.9 -16.7,9.4 -20.4,22.9 -1.6,5.8 -2,11.6 -2.3,34.2 -0.7,36.4 1,48.5 8,58.9 2.3,3.6 4.8,5.7 9.1,7.9 5.9,2.9 6.2,3 21,3 17,-0.1 26.1,-1.8 41.6,-8.2 20.3,-8.3 37.2,-22.1 43.7,-35.4 12.9,-26.8 0.1,-53.8 -33.8,-71.4 -21.9,-11.3 -50.2,-16.4 -66.9,-11.9 z m 44,39.9 V 279 h 11.5 11.6 l -0.3,12.2 -0.3,12.3 -10.7,0.3 -10.8,0.3 v 10.4 10.5 h -13 -13 V 314.5 304 h -11 -11 V 291.5 279 h 11 11 V 267.5 256 h 12.5 12.5 z"
       id="path12"
       inkscape:connector-curvature="0"
       style="fill:#ef1923;fill-opacity:1;stroke:none;stroke-width:0.1" />
    <g
       id="g4688">
      <path
         style="fill:#000000;stroke:none;stroke-width:0.1"
         inkscape:connector-curvature="0"
         id="path4"
         d="m 464,178 c 0,1.9 0.6,2 11.5,2 H 487 v 85 85 h -11.5 c -10.8,0 -11.5,0.1 -11.5,2 0,1.9 0.7,2 25,2 24.3,0 25,-0.1 25,-2 0,-1.9 -0.7,-2 -11.5,-2 H 491 v -78.2 -78.2 l 8.1,11.4 c 4.4,6.3 29.7,42.4 56.2,80.2 l 48.1,68.8 h 3.8 3.8 v -87 -87 h 11 c 10.3,0 11,-0.1 11,-2 0,-1.9 -0.7,-2 -25.1,-2 -23.3,0 -25,0.1 -24.7,1.7 0.3,1.6 1.8,1.8 11.6,2.1 l 11.2,0.3 -0.1,57.2 c 0,49.9 -0.2,56.9 -1.4,55.2 -0.8,-1.1 -19.4,-27.7 -41.3,-59 l -39.8,-57 -29.7,-0.3 C 464.5,176 464,176 464,178 Z" />
      <path
         style="fill:#000000;stroke:none;stroke-width:0.1"
         inkscape:connector-curvature="0"
         id="path6"
         d="m 1069,178 c 0,1.9 0.7,2 11.5,2 h 11.5 v 85 85 h -11.5 c -10.8,0 -11.5,0.1 -11.5,2 0,1.9 0.7,2 25,2 24.3,0 25,-0.1 25,-2 0,-1.9 -0.7,-2 -11.5,-2 H 1096 l 0.1,-85.3 c 0,-46.8 0.3,-84.8 0.5,-84.2 0.2,0.5 14.1,39.7 30.8,87 28.4,80.3 30.5,86 32.7,86 2.1,0 4.3,-5.6 32.5,-86 16.7,-47.3 30.5,-86.5 30.8,-87 0.2,-0.6 0.5,37.4 0.5,84.2 l 0.1,85.3 h -11.5 c -10.8,0 -11.5,0.1 -11.5,2 0,2 0.7,2 41,2 40.3,0 41,0 41,-2 0,-1.9 -0.7,-2 -11.5,-2 H 1260 v -85 -85 h 11.5 c 10.8,0 11.5,-0.1 11.5,-2 0,-2 -0.7,-2 -31.3,-2 h -31.3 l -21.8,62 c -12,34.1 -22,62 -22.1,62 -0.1,0 -9.8,-27.9 -21.6,-62 l -21.4,-62 h -32.2 c -31.6,0 -32.3,0 -32.3,2 z" />
      <path
         style="fill:#000000;stroke:none;stroke-width:0.1"
         inkscape:connector-curvature="0"
         id="path10"
         d="m 1762.5,287.4 -26,63.6 h -6.2 -6.3 v -17 c 0,-16 -0.1,-17 -1.9,-17 -1.3,0 -2,1 -2.5,3.1 -2.2,11.3 -12.8,24.9 -23.3,30.1 -5.8,2.8 -7.5,3.2 -14.7,3.2 -9.6,-0.1 -14.5,-1.3 -20.6,-5.2 -5.3,-3.3 -9.9,-11.1 -12.4,-20.8 -4,-15.3 -4,-57.2 -0.1,-72.5 4,-15.7 13.5,-24.1 29.1,-25.5 18.6,-1.7 30.6,6.5 39,26.8 5.6,13.3 6.4,12.2 6.4,-8.6 0,-18.4 -0.5,-20.6 -4.1,-16.7 -2.5,2.7 -2.9,2.7 -16.7,-1.1 -9.3,-2.5 -13.6,-3.2 -20.7,-3.2 -21.8,0.1 -42.6,12.2 -55.3,32.2 -17.7,27.6 -10,65.4 17.2,84.6 8.3,5.9 13,8.2 22.2,10.7 11.4,3.1 21.9,2.8 37.2,-1 9.1,-2.2 13,-2.8 14.8,-2.1 1.3,0.5 2.4,1.4 2.4,2 0,0.6 6.2,1 17.5,1 14.9,0 17.5,-0.2 17.5,-1.5 0,-1.2 -1.5,-1.5 -7.6,-1.5 -6.8,0 -7.5,-0.2 -7,-1.8 0.4,-0.9 4.6,-11.3 9.4,-22.9 l 8.7,-21.3 h 21 21 l 9.4,21.7 c 5.1,12 9.5,22.3 9.8,23 0.4,0.9 -1.6,1.3 -7.3,1.5 -5.1,0.2 -7.9,0.7 -8.2,1.5 -0.3,1 16.9,1.3 83.7,1.3 h 84.1 v -20.1 c 0,-21.5 -0.7,-24.1 -4,-13.9 -3.9,12.8 -10.8,22 -20.1,27 l -6.4,3.5 -19.2,0.3 -19.3,0.4 V 291.6 232 h 8 c 6.5,0 8,-0.3 8,-1.5 0,-1.3 -3.6,-1.5 -28.7,-1.3 -18.4,0.2 -28.8,0.7 -28.8,1.3 0,0.6 3.4,1.1 7.8,1.3 l 7.7,0.3 v 59.4 59.5 h -14.4 -14.4 l -4.7,-10.8 c -2.5,-5.9 -14.9,-34.3 -27.4,-63.2 -20.8,-48.1 -22.9,-52.5 -25.2,-52.8 -2.4,-0.3 -3.4,1.9 -28.4,63.2 z m 26.2,-10.2 c 5,11.7 9.5,22.1 9.8,23 0.7,1.7 -0.6,1.8 -19,1.8 -11.8,0 -19.5,-0.4 -19.3,-0.9 2.2,-6.2 18.4,-45.1 18.8,-45.1 0.3,0 4.7,9.6 9.7,21.2 z" />
      <path
         style="fill:#000000;stroke:none;stroke-width:0.1"
         inkscape:connector-curvature="0"
         id="path14"
         d="m 1434.3,228.8 c -20.7,0.2 -24.3,0.5 -24.3,1.7 0,1.2 1.6,1.5 8,1.5 h 8 v 59.5 59.5 h -8 c -6.6,0 -8,0.3 -8,1.6 0,1.4 4,1.5 37.3,1.2 35.1,-0.4 37.6,-0.6 44.7,-2.7 19.4,-5.8 32.9,-16.1 40.1,-30.5 9,-18.1 8.9,-40.1 0,-58.2 -10.2,-20.4 -33.2,-32.3 -65.1,-33.6 -4.7,-0.2 -19.4,-0.2 -32.7,0 z m 44.7,4.4 c 15.4,3.7 24.8,14.1 28.7,32.1 2.3,10.6 2.3,41.8 0,51.2 -5.4,21.4 -17.2,32 -38.7,34.7 -5.2,0.6 -11.2,0.8 -13.2,0.4 l -3.8,-0.7 v -59.4 -59.4 l 2.8,-0.4 c 3.9,-0.7 18.9,0.3 24.2,1.5 z" />
      <path
         style="fill:#000000;stroke:none;stroke-width:0.1"
         inkscape:connector-curvature="0"
         id="path16"
         d="m 639,230.5 c 0,1.2 1.6,1.5 8,1.5 h 8 v 59.5 59.5 h -8 c -6.4,0 -8,0.3 -8,1.5 0,1.3 6.9,1.5 56,1.5 h 56 l -0.2,-19.3 c -0.2,-11.2 -0.7,-19.2 -1.2,-19.2 -0.6,0 -2,2.8 -3.2,6.2 -4.5,12.5 -11.9,21.4 -21.9,26.3 -4.7,2.3 -6.2,2.5 -24.2,2.8 l -19.3,0.4 v -31.8 -31.7 l 9.2,0.7 c 7.2,0.5 10,1.1 13.5,3.1 4.9,2.9 9.5,10.1 11.3,17.7 0.7,2.9 1.8,4.8 2.6,4.8 1.2,0 1.4,-4.6 1.4,-27.6 0,-29.2 -0.6,-32.2 -4,-21.3 -4.7,15.4 -12.5,20.9 -29.7,20.9 H 681 v -27.1 -27.1 l 18.3,0.4 c 18,0.3 18.2,0.3 23.6,3.3 6.6,3.6 12.1,9.8 15.7,17.6 4.5,9.7 5.4,8.1 5.4,-9.1 v -15 h -52.5 c -46,0 -52.5,0.2 -52.5,1.5 z" />
      <path
         style="fill:#000000;stroke:none;stroke-width:0.1"
         inkscape:connector-curvature="0"
         id="path18"
         d="m 755,230.5 c 0,1.2 1.5,1.5 7.3,1.5 l 7.2,0.1 19.3,32 19.4,31.9 -16.9,27.5 -16.8,27.5 h -7.2 c -5.8,0 -7.3,0.3 -7.3,1.5 0,1.3 2.6,1.5 17.1,1.5 13.2,0 17,-0.3 16.7,-1.3 -0.3,-0.7 -3.2,-1.4 -8,-1.7 l -7.4,-0.5 15.5,-25.3 c 8.6,-13.8 15.8,-25.2 16.1,-25.2 0.3,0 7.4,11.4 15.8,25.3 l 15.2,25.2 -7.5,0.3 c -5.8,0.2 -7.5,0.6 -7.5,1.7 0,1.3 4.4,1.5 30,1.5 26,0 30,-0.2 30,-1.5 0,-1.2 -1.5,-1.5 -7.2,-1.5 h -7.3 l -22,-36.3 c -12.1,-19.9 -21.9,-36.7 -21.9,-37.4 0.1,-0.6 6.3,-11.1 13.9,-23.2 L 855.2,232 h 6.9 c 5.5,0 6.9,-0.3 6.9,-1.5 0,-1.3 -2.4,-1.5 -16,-1.5 -13.6,0 -16,0.2 -16,1.5 0,1.2 1.5,1.5 7.4,1.5 h 7.4 l -13.1,21 c -7.3,11.5 -13.4,21 -13.7,21 -0.3,0 -6,-9.4 -12.6,-20.8 l -12.2,-20.7 6.9,-0.3 c 5.2,-0.2 6.9,-0.6 6.9,-1.7 0,-1.3 -4.3,-1.5 -29.5,-1.5 -25.6,0 -29.5,0.2 -29.5,1.5 z" />
      <path
         style="fill:#000000;stroke:none;stroke-width:0.1"
         inkscape:connector-curvature="0"
         id="path20"
         d="m 888,245.6 c 0,17.9 0.9,20.2 4,10.8 5.9,-17.3 13.1,-23.3 29.2,-24.2 l 8.8,-0.5 v 59.7 59.6 h -8 c -6.4,0 -8,0.3 -8,1.5 0,1.3 3.9,1.5 29.1,1.5 22.8,0 29,-0.3 28.7,-1.3 -0.3,-0.8 -3.2,-1.3 -8.6,-1.5 L 955,350.9 V 291.5 232 h 6 c 17.3,0 25.4,6.1 32.2,24.3 3.4,9.3 4.3,6.9 4.3,-10.9 V 229.5 L 942.8,229.2 888,229 Z" />
      <path
         style="fill:#000000;stroke:none;stroke-width:0.1"
         inkscape:connector-curvature="0"
         id="path22"
         d="m 1290,230.5 c 0,1.2 1.6,1.5 8,1.5 h 8 v 59.5 59.5 h -8 c -6.4,0 -8,0.3 -8,1.5 0,1.3 6.9,1.5 56,1.5 h 56 l -0.2,-19.3 c -0.2,-11.2 -0.7,-19.2 -1.2,-19.2 -0.6,0 -2,2.8 -3.2,6.2 -4.5,12.5 -11.9,21.4 -21.9,26.3 -4.7,2.3 -6.2,2.5 -24.2,2.8 l -19.3,0.4 v -31.8 -31.7 l 9.2,0.7 c 7.2,0.5 10,1.1 13.5,3.1 4.9,2.9 9.5,10.1 11.3,17.7 0.7,2.9 1.8,4.8 2.6,4.8 1.2,0 1.4,-4.6 1.4,-27.6 0,-29.2 -0.6,-32.2 -4,-21.3 -4.8,15.5 -12.4,20.9 -29.7,20.9 h -4.3 v -27.1 -27.1 l 18.3,0.4 c 18,0.3 18.2,0.3 23.6,3.3 6.6,3.6 12.3,10.1 15.8,17.7 4.4,9.5 5.3,8 5.3,-9.2 v -15 h -52.5 c -46,0 -52.5,0.2 -52.5,1.5 z" />
      <path
         style="fill:#000000;stroke:none;stroke-width:0.1"
         inkscape:connector-curvature="0"
         id="path24"
         d="m 1548.7,229.6 c -1.6,1.6 1,2.4 7.9,2.4 h 7.4 v 59.5 59.4 l -7.7,0.3 c -5,0.2 -7.8,0.7 -8.1,1.5 -0.3,1 5.9,1.3 28.7,1.3 25.2,0 29.1,-0.2 29.1,-1.5 0,-1.2 -1.6,-1.5 -8,-1.5 h -8 V 291.5 232 h 8 c 6.4,0 8,-0.3 8,-1.5 0,-1.3 -3.8,-1.5 -28.3,-1.5 -15.6,0 -28.7,0.3 -29,0.6 z" />
    </g>
    <g
       id="g4709">
      <path
         style="fill:#00a950;fill-opacity:1;stroke:none;stroke-width:0.1"
         inkscape:connector-curvature="0"
         id="path26"
         d="m 486.6,407.7 c -1.1,3.9 -16.6,71.8 -16.6,73 0,0.9 1.9,1.3 6.8,1.3 h 6.8 l 3,-13.3 2.9,-13.2 14.1,-0.6 c 16,-0.6 20.9,-2.2 26.5,-8.7 5,-5.7 6.9,-10.7 6.9,-19 0,-9 -2.3,-14 -8.2,-17.9 -4.1,-2.8 -4.4,-2.8 -22.9,-3.1 -17.4,-0.3 -18.8,-0.2 -19.3,1.5 z m 34,13.6 c 4.9,5.7 2.1,15.5 -5.6,19.4 -3.6,1.9 -6.1,2.3 -13.2,2.3 -5.9,0 -8.8,-0.4 -8.8,-1.1 0,-0.6 1.2,-6.3 2.7,-12.6 l 2.7,-11.5 9.9,0.4 c 9.4,0.3 10,0.4 12.3,3.1 z" />
      <path
         style="fill:#00a950;fill-opacity:1;stroke:none;stroke-width:0.1"
         inkscape:connector-curvature="0"
         id="path28"
         d="m 646.1,409.7 c -0.5,2.1 -1.3,5 -1.7,6.5 l -0.6,2.8 h 6.4 6.5 l 1.1,-5.1 c 1.9,-8 1.9,-7.9 -4.8,-7.9 h -5.9 z" />
      <path
         style="fill:#00a950;fill-opacity:1;stroke:none;stroke-width:0.1"
         inkscape:connector-curvature="0"
         id="path30"
         d="m 1213.3,408 c -4.3,2.6 -6.4,6.1 -8.4,13.9 l -1.7,6.6 -4.6,0.3 c -3.5,0.2 -4.6,0.7 -4.6,2 0,0.9 -0.3,2.7 -0.6,3.9 -0.6,2.1 -0.3,2.3 3.5,2.3 2.2,0 4.1,0.4 4.1,0.9 0,1 -8.7,39.3 -9.6,42.3 -0.5,1.6 0.2,1.8 6,1.8 3.6,0 6.6,-0.1 6.6,-0.3 0,-1.4 9.9,-42.8 10.5,-43.6 0.3,-0.6 3,-1.1 5.9,-1.1 5.2,0 5.4,-0.1 6,-3.1 0.9,-4.9 0.9,-4.9 -4.2,-4.9 -2.7,0 -5.1,-0.2 -5.4,-0.5 -1,-1 1.4,-8.3 3.1,-9.9 1,-0.9 3.7,-1.7 6.2,-1.9 l 4.4,-0.2 1.1,-5.3 1.2,-5.2 h -8.2 c -6.3,0 -8.8,0.4 -11.3,2 z" />
      <path
         style="fill:#00a950;fill-opacity:1;stroke:none;stroke-width:0.1"
         inkscape:connector-curvature="0"
         id="path32"
         d="m 1239.1,411.7 c -0.6,3.1 -1.1,6 -1.1,6.5 0,0.5 2.8,0.8 6.2,0.6 6.8,-0.3 6.5,0 8.2,-9.1 l 0.7,-3.7 h -6.4 -6.4 z" />
      <path
         style="fill:#00a950;fill-opacity:1;stroke:none;stroke-width:0.1"
         inkscape:connector-curvature="0"
         id="path34"
         d="m 613.1,415.7 c -2.5,12.8 -2.8,13.3 -7,13.3 -3.7,0 -3.9,0.2 -4.9,4 l -1,4 h 3.3 c 1.9,0 3.6,0.4 3.9,0.8 0.3,0.4 -1.1,7.5 -2.9,15.8 -1.9,8.2 -3.5,16.6 -3.5,18.6 0,7.1 7.2,11.5 16.7,10.2 3.8,-0.5 4.2,-0.9 4.8,-4.1 0.3,-1.9 0.9,-4.1 1.2,-4.9 0.4,-1 -0.3,-1.4 -2.5,-1.4 -1.6,0 -4,-0.8 -5.2,-1.8 l -2.3,-1.9 2.7,-11.9 c 4.8,-21.1 3.9,-19.4 9.5,-19.4 4.8,0 4.9,0 5.9,-4 l 1,-4 h -4.3 c -2.4,0 -4.6,-0.4 -4.9,-0.8 -0.3,-0.5 0.4,-4.6 1.4,-9.1 1.1,-4.5 2,-8.4 2,-8.7 0,-0.2 -2.9,-0.4 -6.4,-0.4 h -6.3 z" />
      <path
         style="fill:#00a950;fill-opacity:1;stroke:none;stroke-width:0.1"
         inkscape:connector-curvature="0"
         id="path36"
         d="m 793.5,417.2 c -2.5,11.1 -2.9,11.8 -6.9,11.8 -3.9,0 -4.1,0.2 -5.1,4.7 -0.6,3.2 -0.6,3.3 2.8,3.3 1.8,0 3.6,0.2 3.9,0.5 0.2,0.3 -1,6.9 -2.9,14.7 -3.1,13.7 -4,21.8 -2.7,25.2 1.3,3.3 9.5,5.9 15.6,4.9 3.3,-0.5 3.9,-1 4.8,-4.2 1.5,-5.4 1.3,-5.8 -3,-6.5 -3.2,-0.5 -4.1,-1.1 -4.6,-3.2 -0.6,-2.1 4.7,-28.2 6.2,-30.6 0.3,-0.4 2.7,-0.8 5.3,-0.8 4.6,0 4.9,-0.1 5.5,-3.1 0.9,-4.8 0.9,-4.9 -3.9,-4.9 -5.3,0 -5.3,0.1 -2.6,-11.3 l 1.8,-7.7 h -6.2 -6.3 z" />
      <path
         style="fill:#00a950;fill-opacity:1;stroke:none;stroke-width:0.1"
         inkscape:connector-curvature="0"
         id="path38"
         d="m 1361.5,411.2 c -0.3,0.7 -1.3,4.9 -2.3,9.3 l -1.8,8 -4.1,0.3 c -3.2,0.2 -4.2,0.8 -4.7,2.5 -1.3,4.8 -0.8,5.7 2.9,5.7 1.9,0 3.5,0.4 3.5,0.8 0,0.5 -1.6,7.8 -3.5,16.3 -1.9,8.5 -3.5,16.5 -3.5,17.9 0,3.8 3.5,8.9 6.7,9.6 1.5,0.3 3.4,0.8 4.2,1 0.8,0.3 3.4,0.2 5.7,-0.2 3.8,-0.5 4.4,-1 4.9,-3.8 0.4,-1.7 0.9,-3.9 1.1,-4.9 0.4,-1.3 -0.1,-1.7 -2.5,-1.7 -3.6,0 -7.4,-3.3 -6.7,-5.8 0.2,-0.9 1.7,-7.3 3.2,-14.2 1.5,-6.9 3.2,-13.1 3.7,-13.8 0.5,-0.6 2.9,-1.2 5.3,-1.2 4.5,0 4.2,0.2 6,-6.3 0.5,-1.4 -0.2,-1.7 -3.9,-1.7 -2.4,0 -4.6,-0.2 -4.9,-0.5 -0.3,-0.3 0.3,-4.3 1.3,-8.8 1,-4.5 1.9,-8.5 1.9,-9 0,-1.3 -12,-0.8 -12.5,0.5 z" />
      <path
         style="fill:#00a950;fill-opacity:1;stroke:none;stroke-width:0.1"
         inkscape:connector-curvature="0"
         id="path40"
         d="m 678.6,428.6 c -18,5.7 -25.9,35.9 -12.6,48.5 4.8,4.6 10.9,6.3 20.4,5.7 8.4,-0.6 16.2,-4.2 20.3,-9.5 l 2.4,-3.1 -5.3,-3.1 -5.3,-3.1 -2.5,2.9 c -7.8,9 -20,7.4 -23.2,-3 -2,-6.9 -2.1,-6.9 18.6,-6.9 H 710 l 0.6,-2.6 c 2.2,-8.7 -2.7,-20.9 -9.9,-24.6 -5.5,-2.7 -15.5,-3.3 -22.1,-1.2 z m 17.2,10.9 c 1.2,1.4 2.2,3.9 2.2,5.6 v 2.9 h -10.9 c -6.1,0 -11.2,-0.4 -11.5,-0.9 -1,-1.5 3.8,-7.5 7.4,-9.4 4.6,-2.3 9.8,-1.6 12.8,1.8 z" />
      <path
         style="fill:#00a950;fill-opacity:1;stroke:none;stroke-width:0.1"
         inkscape:connector-curvature="0"
         id="path42"
         d="m 829.6,428.5 c -7.8,2.8 -12.6,8.6 -12.6,15.3 0,6.7 5.6,11.8 16.5,15.2 2.2,0.7 5.4,1.9 7.2,2.7 5.4,2.5 5.5,7.1 0.2,9.8 -6.2,3.3 -15.5,0.8 -19.5,-5.2 l -2.1,-3.1 -5.1,3 c -2.9,1.6 -5.2,3.2 -5.2,3.6 0,1.5 4.6,7 7.5,8.9 4.6,3 9.9,4.3 18.3,4.3 14.3,0 22.2,-6.4 22.2,-18.1 0,-4.6 -0.4,-5.5 -3.7,-8.9 -2.8,-2.7 -6,-4.4 -11.9,-6.4 -11.1,-3.6 -14.2,-7.5 -9.2,-11 4.7,-3.3 16.6,-0.8 18.4,3.9 0.8,2.1 1.8,1.9 7,-1.4 l 4.6,-2.9 -4,-4 c -6.6,-6.6 -19.2,-9.1 -28.6,-5.7 z" />
      <path
         style="fill:#00a950;fill-opacity:1;stroke:none;stroke-width:0.1"
         inkscape:connector-curvature="0"
         id="path44"
         d="m 916.9,428.3 c -6,2.2 -10.5,5.5 -13.2,9.4 -9.7,14.1 -10,31.2 -0.8,39.6 2.1,1.9 5.5,4 7.6,4.7 4.9,1.6 18,0.9 22.1,-1.3 4,-2.1 9,-7 11,-10.8 l 1.5,-2.9 -5.8,-2.5 c -3.9,-1.8 -5.9,-2.2 -6.1,-1.5 -0.9,2.7 -6.6,8 -9.6,9 -6.1,2 -13,-2.4 -14.1,-9.1 -1.7,-9.9 3.9,-21.4 11.9,-24.4 4.3,-1.6 4.6,-1.6 8.3,0.1 2.7,1.4 4,2.8 4.7,5.2 0.5,2 1.4,3.1 2.2,2.8 0.6,-0.2 3.1,-1 5.4,-1.7 2.3,-0.7 4.4,-1.8 4.7,-2.5 1,-2.6 -3.7,-9.3 -8.3,-12 -5.5,-3.2 -15.8,-4.2 -21.5,-2.1 z" />
      <path
         style="fill:#00a950;fill-opacity:1;stroke:none;stroke-width:0.1"
         inkscape:connector-curvature="0"
         id="path46"
         d="m 973.5,427.9 c -12.3,3 -21.5,14.6 -23.2,29.2 -1.3,10.7 4.4,21.1 13.2,24.5 6.4,2.4 17.3,1.6 24.1,-1.9 8.9,-4.5 14.9,-14.7 16.1,-27.1 0.8,-8.7 -1,-14.2 -6.1,-19.1 -6,-5.8 -14.8,-7.8 -24.1,-5.6 z m 13.3,11.7 c 6.9,4.5 4.8,22.8 -3.3,29.2 -9.4,7.4 -20.5,2.6 -20.5,-9 0,-15.7 13.3,-27 23.8,-20.2 z" />
      <path
         style="fill:#00a950;fill-opacity:1;stroke:none;stroke-width:0.1"
         inkscape:connector-curvature="0"
         id="path48"
         d="m 1125,427.9 c -11.8,3.6 -19.7,14.5 -20.7,28.5 -0.3,4.2 0,8.9 0.7,11.6 1.5,5.7 8,12.4 13.5,13.9 5.8,1.6 15.4,1.4 20.8,-0.5 5.2,-1.8 14.4,-9.4 13.4,-11.1 -0.4,-0.6 -2.7,-2.3 -5.2,-3.8 l -4.5,-2.6 -2.7,3.2 c -8.7,10.2 -23.3,6.1 -23.3,-6.6 V 457 h 18.9 18.8 l 0.6,-3.7 c 1.9,-11.3 -4.5,-22.6 -14.1,-25.3 -4.2,-1.1 -12.5,-1.2 -16.2,-0.1 z m 13,9.6 c 2.9,1.5 5.7,7.5 4.5,9.5 -0.4,0.6 -5.2,1 -11.6,1 -12,0 -12.7,-0.4 -8.7,-5.5 2.7,-3.5 7.6,-6.5 10.6,-6.5 1.3,0 3.6,0.7 5.2,1.5 z" />
      <path
         style="fill:#00a950;fill-opacity:1;stroke:none;stroke-width:0.1"
         inkscape:connector-curvature="0"
         id="path50"
         d="m 1307.3,428.6 c -2.3,0.8 -5.8,3.3 -7.7,5.5 -3.2,3.5 -3.6,4.5 -3.6,9.5 0,5.2 0.3,6 3.5,8.9 2.2,2.1 6.2,4.3 11.3,5.9 9.4,3.2 12.2,5 12.2,8 0,5.8 -9.6,8.4 -17.2,4.7 -2.4,-1.1 -5.1,-3.4 -6.1,-5 l -1.7,-3 -5.4,3.2 c -5.2,3.1 -5.3,3.3 -4.1,5.7 1.7,3.2 5,6.3 9.5,8.6 2.8,1.5 5.7,1.9 14.7,1.9 10.8,0 11.3,-0.1 15.4,-3 10.7,-7.6 10.5,-21.1 -0.5,-26.7 -2.2,-1.1 -7,-3.1 -10.5,-4.3 -3.7,-1.2 -7.1,-3 -7.9,-4.3 -1.3,-1.9 -1.1,-2.4 1.3,-4.8 2.4,-2.4 3.2,-2.6 8.2,-2.2 4.8,0.4 6.1,1 8.8,3.9 l 3.2,3.5 4,-2.6 c 2.3,-1.4 4.5,-2.8 4.9,-3.3 1.1,-1.1 -4.4,-6.5 -9,-8.9 -5.3,-2.7 -17.5,-3.4 -23.3,-1.2 z" />
      <path
         style="fill:#00a950;fill-opacity:1;stroke:none;stroke-width:0.1"
         inkscape:connector-curvature="0"
         id="path52"
         d="m 555.5,429.2 c -4.7,1.7 -9.1,5.4 -10.9,9.1 -2.5,5.4 -2.2,5.7 4.9,5.7 6.1,0 6.5,-0.1 8,-3 1.1,-2.1 2.7,-3.2 5.6,-4 7.4,-2 13.9,0.8 13.9,6.1 0,3.8 -1.7,4.5 -14.4,5.8 -5.9,0.6 -12.7,1.6 -14.9,2.3 -8.4,2.5 -13.7,11.6 -11.7,20.2 2.4,10.7 16.1,15 28.4,8.8 l 5.6,-2.9 v 2.4 c 0,2.2 0.3,2.3 6.5,2.3 h 6.5 v -4 c 0,-2.2 1.4,-10.1 3,-17.7 4.5,-20.7 3.9,-26.2 -3.7,-29.9 -4.5,-2.2 -21.9,-3 -26.8,-1.2 z m 17.5,32.1 c -1,4.8 -3.4,7.5 -8.5,9.8 -5.3,2.4 -9.6,2.4 -12.9,-0.2 -5.1,-4 -2.4,-11.2 4.6,-12.4 7.8,-1.3 16.4,-2.1 17,-1.6 0.4,0.3 0.3,2.3 -0.2,4.4 z" />
      <path
         style="fill:#00a950;fill-opacity:1;stroke:none;stroke-width:0.1"
         inkscape:connector-curvature="0"
         id="path54"
         d="m 746.1,429.1 c -1.3,0.5 -3.5,1.8 -5.1,2.9 l -2.7,1.9 0.5,-2.4 c 0.4,-2.4 0.3,-2.5 -5.7,-2.5 -3.3,0 -6.1,0.2 -6.1,0.6 0,0.7 -10.9,48.5 -11.6,50.6 -0.5,1.6 0.2,1.8 5.9,1.8 h 6.5 l 3.7,-15.4 c 4.5,-19.1 6.5,-23.3 12.5,-26.3 3.9,-2 5,-2.2 7.7,-1.3 5.6,2 5.8,5 1.7,23.4 -1.9,8.9 -3.7,16.9 -4,17.8 -0.5,1.6 0.2,1.8 5.9,1.8 h 6.5 l 1,-4.3 c 3.3,-13.1 7.2,-32.2 7.2,-35.2 0,-5.3 -2.5,-10.2 -6.2,-12.5 -3.6,-2.2 -13.3,-2.7 -17.7,-0.9 z" />
      <path
         style="fill:#00a950;fill-opacity:1;stroke:none;stroke-width:0.1"
         inkscape:connector-curvature="0"
         id="path56"
         d="m 1040,428.7 c -0.8,0.3 -2.7,1.5 -4.2,2.5 -2.8,1.9 -2.8,1.9 -2.8,-0.2 0,-1.9 -0.5,-2.1 -6.2,-1.8 l -6.2,0.3 -5.8,25 c -3.2,13.7 -5.8,25.6 -5.8,26.2 0,0.9 1.8,1.3 6,1.3 h 5.9 l 1,-3.8 c 0.6,-2 2.1,-8.8 3.5,-15 1.4,-6.3 3.4,-13.3 4.5,-15.6 4.1,-9.3 15.4,-12.3 18.2,-4.9 0.9,2.5 -1.5,15.9 -6.8,37 -0.5,2.2 -0.3,2.3 5.9,2.3 h 6.4 l 3.3,-14.3 c 3.9,-16.7 6.7,-23.5 11,-26.6 4.4,-3.1 9.8,-3.2 12.2,-0.2 2.6,3.1 2.5,4.1 -2.1,23.4 -2.2,9.3 -4,17.1 -4,17.3 0,0.2 2.9,0.4 6.5,0.4 3.6,0 6.5,-0.2 6.5,-0.5 0,-0.3 1.8,-8.5 4,-18.1 5.5,-24.2 5.3,-28.3 -2,-33.2 -3,-2.1 -4.5,-2.3 -10.6,-2 -5.9,0.3 -7.8,0.8 -12,3.6 -4.6,3 -5,3.1 -6.4,1.4 -3.4,-4 -6.4,-5.2 -12.5,-5.1 -3.3,0 -6.7,0.3 -7.5,0.6 z" />
      <path
         style="fill:#00a950;fill-opacity:1;stroke:none;stroke-width:0.1"
         inkscape:connector-curvature="0"
         id="path58"
         d="m 1256.5,453.7 c -3.2,14.2 -6,26.4 -6.3,27 -0.3,1 1.3,1.3 6.2,1.3 3.6,0 6.6,-0.3 6.6,-0.6 0,-2.4 6.4,-27.5 7.9,-30.9 2.4,-5.4 6.9,-8.6 13.3,-9.4 l 5.2,-0.6 1.2,-5.5 c 1.7,-7.3 1.8,-7 -1.6,-7 -4,0 -8.7,2 -12.9,5.6 -2.6,2.2 -3.3,2.4 -2.8,1.1 2.5,-6.6 2.5,-6.7 -4.5,-6.7 h -6.4 z" />
      <path
         style="fill:#00a950;fill-opacity:1;stroke:none;stroke-width:0.1"
         inkscape:connector-curvature="0"
         id="path60"
         d="m 635.4,455.2 -6,26.3 5.9,0.3 c 3.3,0.2 6.2,0.1 6.4,-0.2 0.5,-0.5 12.2,-50.2 12.3,-51.9 0,-0.4 -2.8,-0.7 -6.3,-0.7 h -6.3 z" />
      <path
         style="fill:#00a950;fill-opacity:1;stroke:none;stroke-width:0.1"
         inkscape:connector-curvature="0"
         id="path62"
         d="m 1235,429.3 c 0,0.2 -9.9,43.5 -11.5,50.4 -0.5,2.2 -0.3,2.3 6,2.3 3.6,0 6.5,-0.3 6.5,-0.6 0,-0.7 10.9,-48.3 11.6,-50.7 0.5,-1.5 -0.2,-1.7 -6,-1.7 -3.6,0 -6.6,0.1 -6.6,0.3 z" />
    </g>
    <g
       transform="translate(-66.937487,-489.98241)"
       id="g4677">
      <path
         style="fill:#b7db9f;fill-opacity:1;stroke:#b7db9f;stroke-width:1.33498263px;stroke-linecap:butt;stroke-linejoin:miter;stroke-opacity:1"
         d="m 192.05503,567.6474 c -36.5389,-0.10065 -55.5859,30.83695 -55.10717,56.99494 l 0.0151,47.17027 c 3.73622,-0.75486 7.6955,-1.17187 11.89748,-1.16026 31.68089,0.0871 63.45639,6.83767 90.60153,18.91657 l -0.006,-22.91374 c -0.47886,-26.15799 18.56828,-57.0954 55.10714,-56.99495 9.49344,0.029 18.99134,0.67551 28.3761,1.8617 -31.92858,-27.45054 -81.52999,-43.73885 -130.8827,-43.87453 z"
         id="path613-2-5-6-8-93-8"
         inkscape:connector-curvature="0" />
      <path
         style="fill:#cbbf9d;fill-opacity:1;stroke:#cbbf9d;stroke-width:1.33498263px;stroke-linecap:butt;stroke-linejoin:miter;stroke-opacity:1"
         d="m 322.94294,611.5168 c 21.41015,18.40723 34.87806,41.83157 34.98083,68.77771 0.0707,18.56344 -6.16109,35.34908 -16.99503,49.92105 35.19164,15.29489 62.83257,39.48241 72.793,69.75022 28.39575,-19.19025 46.83017,-45.80832 46.70877,-77.65843 C 460.20444,662.90672 395.06058,620.62862 322.94294,611.5168 Z"
         id="path613-2-5-6-2-7-2-5-9"
         inkscape:connector-curvature="0" />
      <path
         style="fill:#8bceae;fill-opacity:1;stroke:#8bceae;stroke-width:1.33498263px;stroke-linecap:butt;stroke-linejoin:miter;stroke-opacity:1"
         d="m 413.72961,799.95504 c -30.67016,20.72862 -72.9655,32.76001 -116.08357,33.36418 -20.60665,27.63268 -57.76792,47.29434 -99.87858,56.00405 4.22241,22.78484 22.35082,46.39596 53.87909,46.38289 84.20632,-0.0387 166.35164,-43.94421 166.09588,-111.07478 -0.0358,-8.60152 -1.43351,-16.84168 -4.01282,-24.67634 z"
         id="path613-2-5-6-2-8-5-29-5"
         inkscape:connector-curvature="0" />
      <path
         style="fill:#b7c99c;fill-opacity:1;stroke:#b7c99c;stroke-width:1.33498263px;stroke-linecap:butt;stroke-linejoin:miter;stroke-opacity:1"
         d="m 136.97087,671.80225 c -28.75449,5.80874 -43.636047,32.68414 -43.212316,55.8346 l 0.03029,110.08911 c -0.03029,25.31013 18.519026,56.66067 54.846466,56.64548 16.67017,-0.005 33.24841,-1.75959 49.13363,-5.04526 -0.64279,-3.46839 -0.9739,-6.91625 -0.97001,-10.26008 l -0.0252,-87.75681 c -1.64628,0.0387 -3.29261,0.0581 -4.94106,0.0581 -36.32754,0.0194 -54.87578,-31.33555 -54.84642,-56.64549 z"
         id="path613-2-5-6-2-6-56-0"
         inkscape:connector-curvature="0" />
      <path
         style="fill:#99ad71;fill-opacity:1;stroke:#99ad71;stroke-width:1.33498263px;stroke-linecap:butt;stroke-linejoin:miter;stroke-opacity:1"
         d="m 294.56949,609.6551 c -36.53885,-0.10064 -55.586,30.83706 -55.10712,56.99495 l 0.006,22.90852 c 14.70043,6.53969 28.03332,14.64881 39.25944,24.10787 21.86982,2.61781 43.14158,8.26106 62.19655,16.54128 10.83278,-14.57158 17.07369,-31.35084 17.0028,-49.91321 -0.10297,-26.9473 -13.57149,-50.37009 -34.98325,-68.77771 -9.38396,-1.18552 -18.88091,-1.83557 -28.3736,-1.8617 z"
         id="path613-2-5-6-8-46-8"
         inkscape:connector-curvature="0" />
      <path
         style="fill:#7ba67a;fill-opacity:1;stroke:#7ba67a;stroke-width:1.33498263px;stroke-linecap:butt;stroke-linejoin:miter;stroke-opacity:1"
         d="m 340.93913,730.18662 c -7.88188,10.60374 -18.20382,20.03019 -30.30304,28.12063 2.63805,7.91885 4.07595,16.25182 4.1092,24.95534 0.0707,18.62015 -6.20553,35.44992 -17.09925,50.05663 43.1226,-0.60195 85.42275,-12.65956 116.09654,-33.39021 -9.96057,-30.26772 -37.61407,-54.44682 -72.80345,-69.74239 z"
         id="path613-2-5-6-2-8-5-2-0"
         inkscape:connector-curvature="0" />
      <path
         style="fill:#69b07a;fill-opacity:1;stroke:#69b07a;stroke-width:1.33498263px;stroke-linecap:butt;stroke-linejoin:miter;stroke-opacity:1"
         d="m 240.34856,786.44645 c -14.12475,2.87902 -28.78717,4.55625 -43.57463,4.86284 l 0.0252,87.78294 c -0.004,3.34363 0.32439,6.79179 0.96738,10.26008 42.11039,-8.70991 79.27006,-28.37157 99.87605,-56.00415 -1.10166,0.0194 -2.20099,0.0581 -3.30356,0.0581 -31.7926,0.0193 -49.96879,-23.99639 -53.99123,-46.95639 z"
         id="path613-2-5-6-2-6-6-1"
         inkscape:connector-curvature="0" />
      <path
         style="fill:#88b771;fill-opacity:1;stroke:#88b771;stroke-width:1.33498263px;stroke-linecap:butt;stroke-linejoin:miter;stroke-opacity:1"
         d="m 148.85861,670.63677 c -4.20188,-0.01 -8.16116,0.40549 -11.89748,1.16026 l 0.0202,62.91884 c -0.0303,25.31013 18.51888,56.65807 54.84642,56.64297 1.64845,-6.7e-4 3.29473,-0.029 4.94105,-0.0581 l -0.005,-22.3296 c -0.42127,-23.01555 14.28057,-49.71985 42.70634,-55.7382 l -0.0106,-23.66454 c -27.1414,-12.08616 -58.91558,-18.84525 -90.60102,-18.93235 z"
         id="path613-2-5-6-8-9-8"
         inkscape:connector-curvature="0" />
      <path
         style="fill:#5a9c5f;fill-opacity:1;stroke:#5a9c5f;stroke-width:1.33498263px;stroke-linecap:butt;stroke-linejoin:miter;stroke-opacity:1"
         d="m 278.73205,713.65599 c 15.00415,12.64098 26.22694,27.70526 31.88579,44.68803 12.10268,-8.09286 22.42836,-17.52076 30.3109,-28.12846 -19.05568,-8.28129 -40.32608,-13.94002 -62.19669,-16.55957 z"
         id="path613-2-5-6-8-7-9"
         inkscape:connector-curvature="0" />
      <path
         style="fill:#5f935f;fill-opacity:1;stroke:#5f935f;stroke-width:1.33498263px;stroke-linecap:butt;stroke-linejoin:miter;stroke-opacity:1"
         d="m 310.62313,758.34141 c -19.6564,13.14906 -44.01824,22.747 -70.2744,28.10504 4.03269,22.95159 22.20661,46.941 53.98604,46.92774 1.10509,-3.8e-4 2.20725,-0.0387 3.31127,-0.0581 10.88079,-14.60014 17.1493,-31.42236 17.07842,-50.0305 -0.0348,-8.70053 -1.46475,-17.03175 -4.10133,-24.94751 z"
         id="path613-2-5-6-2-6-5-5"
         inkscape:connector-curvature="0" />
      <path
         style="fill:#47a962;fill-opacity:1;stroke:#47a962;stroke-width:1.33498263px;stroke-linecap:butt;stroke-linejoin:miter;stroke-opacity:1"
         d="m 239.47524,713.2623 c -28.42563,6.01874 -43.12781,32.72517 -42.70635,55.74072 l 0.005,22.30618 c 14.78776,-0.30582 29.44933,-1.98364 43.57463,-4.86275 -0.57379,-3.27502 -0.85889,-6.52953 -0.85521,-9.6891 z"
         id="path613-2-5-6-8-15-8"
         inkscape:connector-curvature="0" />
      <path
         style="fill:#759659;fill-opacity:1;stroke:#749558;stroke-width:1.33498263px;stroke-linecap:butt;stroke-linejoin:miter;stroke-opacity:1"
         d="m 239.46736,689.57676 0.0106,23.68554 c 3.88107,-0.82164 8.0112,-1.26884 12.40063,-1.25674 8.98072,0.029 17.96396,0.6155 26.85361,1.67907 -11.22642,-9.45983 -24.56064,-17.56789 -39.26212,-24.10787 z"
         id="path613-2-5-6-8-4-7"
         inkscape:connector-curvature="0" />
      <path
         style="fill:#448f52;fill-opacity:1;stroke:#448f52;stroke-width:1.33498263px;stroke-linecap:butt;stroke-linejoin:miter;stroke-opacity:1"
         d="m 251.86864,711.97681 c -4.38957,-0.01 -8.51959,0.43453 -12.40063,1.25684 l 0.0203,63.49506 c -0.004,3.16876 0.28356,6.43304 0.86054,9.71774 26.25404,-5.35785 50.61361,-14.95472 70.26911,-28.10243 -5.65473,-16.98026 -16.8701,-32.04211 -31.86756,-44.68281 -8.89816,-1.06619 -17.89009,-1.65962 -26.87959,-1.6844 z"
         id="path613-2-5-6-8-1-0"
         inkscape:connector-curvature="0" />
    </g>
  </g>
</svg>
